<?xml version="1.0" standalone="no"?>
<!DOCTYPE svg PUBLIC "-//W3C//DTD SVG 20010904//EN"
 "http://www.w3.org/TR/2001/REC-SVG-20010904/DTD/svg10.dtd">
<svg version="1.0" xmlns="http://www.w3.org/2000/svg"
 width="700.000000pt" height="700.000000pt" viewBox="0 0 700.000000 700.000000"
 preserveAspectRatio="xMidYMid meet">
<metadata>
Created by potrace 1.11, written by Peter Selinger 2001-2013
</metadata>
<g transform="translate(0.000000,700.000000) scale(0.100000,-0.100000)"
fill="#000000" stroke="none">
<path d="M0 3500 l0 -3500 3500 0 3500 0 0 3500 0 3500 -3500 0 -3500 0 0
-3500z m2335 2785 c315 -55 586 -280 698 -580 88 -235 71 -514 -44 -736 -45
-87 -84 -122 -152 -141 -116 -31 -243 74 -234 193 2 25 18 77 35 114 104 220
76 441 -77 607 -202 220 -552 223 -756 6 -70 -74 -104 -131 -131 -223 -23 -80
-20 -213 6 -297 37 -120 136 -240 248 -301 57 -31 187 -67 242 -67 53 0 100
-18 137 -53 68 -63 63 31 63 -1317 0 -1367 6 -1258 -73 -1325 -28 -25 -53 -36
-86 -39 -195 -23 -304 -67 -397 -160 -106 -107 -154 -220 -154 -364 0 -149 51
-275 154 -378 174 -174 450 -199 660 -59 209 139 272 404 160 683 -34 84 -30
147 20 323 149 536 407 907 816 1175 52 34 161 96 241 139 356 189 581 411
742 730 43 87 107 253 107 280 0 7 -12 16 -27 20 -93 23 -236 104 -341 194
-114 97 -229 285 -274 446 -31 114 -31 344 1 460 86 320 321 557 642 651 82
24 112 28 234 28 156 1 230 -12 353 -63 193 -80 335 -203 444 -386 153 -254
163 -596 28 -866 -53 -104 -122 -159 -200 -159 -37 0 -93 24 -126 52 -69 61
-83 152 -38 248 68 144 85 249 60 367 -62 295 -344 476 -634 408 -95 -23 -179
-70 -248 -140 -264 -269 -175 -707 174 -854 29 -12 90 -27 135 -33 131 -17
155 -26 196 -68 61 -63 69 -109 42 -238 -52 -249 -173 -542 -306 -737 -203
-299 -422 -492 -776 -680 -222 -118 -329 -194 -455 -319 -115 -115 -192 -221
-263 -361 -23 -44 -41 -82 -41 -86 0 -3 37 2 82 12 186 40 410 34 588 -17 104
-30 268 -111 392 -194 117 -78 126 -86 149 -133 30 -58 26 -111 -17 -233 -36
-103 -38 -115 -38 -229 1 -134 17 -196 75 -287 83 -129 265 -227 424 -227 76
-1 183 25 253 61 71 35 178 141 213 210 110 216 81 439 -82 612 -98 105 -194
146 -401 171 -92 12 -168 97 -167 190 0 58 37 124 90 160 42 28 49 30 139 29
221 -1 452 -105 616 -275 85 -90 123 -143 174 -251 96 -202 112 -432 44 -650
-49 -160 -125 -280 -256 -404 -302 -284 -760 -321 -1117 -91 -315 204 -463
584 -376 966 9 39 15 77 12 84 -7 18 -186 104 -258 124 -94 26 -308 23 -410
-5 -72 -19 -212 -82 -223 -100 -2 -4 4 -39 15 -77 46 -159 35 -373 -28 -550
-128 -362 -502 -611 -888 -592 -232 11 -421 88 -580 236 -170 158 -267 348
-296 579 -53 423 233 854 646 972 l60 17 3 1006 2 1005 -38 7 c-55 9 -198 75
-272 125 -173 117 -299 286 -366 490 -27 80 -28 95 -28 265 0 171 1 184 28
265 56 167 126 279 247 396 89 84 147 125 242 169 168 77 358 102 542 70z"/>
</g>
</svg>
